<svg xmlns="http://www.w3.org/2000/svg" version="1.1" xmlns:xlink="http://www.w3.org/1999/xlink" xmlns:svgjs="http://svgjs.com/svgjs" width="1000" height="1000"><g transform="matrix(12.38390092879257,0,0,12.38390092879257,-0.05916822657582088,116.00774660165672)"><svg xmlns="http://www.w3.org/2000/svg" version="1.1" xmlns:xlink="http://www.w3.org/1999/xlink" xmlns:svgjs="http://svgjs.com/svgjs" width="80.75" height="62.01"><svg fill="none" xmlns="http://www.w3.org/2000/svg" viewBox="-0.01 -0.02 80.75 62.01">
  <path d="M61.3383 24.5182C60.7244 23.2047 59.6492 21.8713 58.0523 21.8952C57.4225 21.9257 56.8111 22.1155 56.276 22.4464C55.7409 22.7772 55.3 23.2383 54.995 23.7858C54.5002 24.4541 54.2408 25.2653 54.2568 26.0944C54.2568 27.8417 55.3 29.2547 56.5879 29.2547C57.8758 29.2547 58.923 27.8417 58.923 26.0944C58.923 24.6734 58.2329 23.4754 57.286 23.0734C57.5539 22.9679 57.8404 22.9165 58.1286 22.9221C59.3001 22.9221 60.0103 24.1162 60.4436 25.0356C60.5138 25.1528 60.6278 25.2377 60.7607 25.272C60.8937 25.3063 61.0349 25.2871 61.1537 25.2187C61.2684 25.147 61.3513 25.0347 61.3856 24.9046C61.4199 24.7745 61.403 24.6364 61.3383 24.5182Z" fill="#82368C"></path>
  <path d="M48.9726 27.38C48.2866 26.0148 47.111 24.7292 45.454 24.757C44.7423 24.789 44.0518 25.0063 43.4517 25.3871C42.8516 25.7679 42.3632 26.2988 42.0356 26.9263C41.6307 27.5264 41.4181 28.234 41.4257 28.9562C41.4257 30.7035 42.5933 32.1404 44.0296 32.1404C45.466 32.1404 46.6295 30.7234 46.6295 28.9562C46.6295 27.4994 45.8271 26.2735 44.7157 25.9073C44.9752 25.8256 45.2459 25.784 45.5182 25.7839C46.7619 25.7839 47.5563 26.8984 48.0579 27.8974C48.3788 28.4905 49.2695 27.9691 48.9726 27.38Z" fill="#82368C"></path>
  <path d="M47.7931 38.6082C49.5696 39.4504 51.5866 39.6516 53.4966 39.1771C55.4065 38.7027 57.0899 37.5824 58.2568 36.0091C58.3258 35.8913 58.3451 35.7512 58.3106 35.6192C58.276 35.4873 58.1904 35.3743 58.0723 35.3046C57.9523 35.2396 57.8117 35.2228 57.6796 35.2576C57.5474 35.2924 57.4338 35.3762 57.3621 35.4917C56.3269 36.8178 54.8713 37.7591 53.2304 38.1635C51.5896 38.5679 49.8592 38.4119 48.3187 37.7206C47.7169 37.446 47.1913 38.3296 47.7931 38.6082Z" fill="#82368C"></path>
  <path d="M53.2979 28.3193C53.3539 28.7996 53.5147 29.2619 53.769 29.6743C54.0232 30.0867 54.3649 30.4392 54.7703 30.7075C54.9623 30.8325 55.162 30.9455 55.3681 31.0458C55.5687 31.1572 55.7092 31.2567 55.7212 31.4956C55.6807 32.0249 55.4886 32.5317 55.1675 32.9563C54.9348 33.3543 55.5326 33.6767 55.7653 33.3026C56.0894 32.8232 56.3056 32.2802 56.3993 31.7105C56.4346 31.4632 56.3909 31.2112 56.2743 30.9899C56.1577 30.7685 55.9741 30.589 55.7493 30.4766C54.9469 30.0109 54.0842 29.3144 54.004 28.3074C53.9679 27.8696 53.2778 27.8656 53.3139 28.3074L53.2979 28.3193Z" fill="#82368C"></path>
  <path d="M52.7963 20.506C53.017 20.0417 53.3412 19.6331 53.7443 19.3111C54.1474 18.9891 54.6189 18.7621 55.1233 18.6473C55.6897 18.5366 56.2734 18.5465 56.8356 18.6761C57.3979 18.8058 57.9261 19.0524 58.3852 19.3995C58.504 19.4679 58.6453 19.4871 58.7782 19.4528C58.9112 19.4185 59.0252 19.3336 59.0954 19.2164C59.1619 19.0976 59.1794 18.9578 59.1443 18.8265C59.1091 18.6951 59.024 18.5824 58.9068 18.5119C58.3299 18.0934 57.6701 17.8007 56.971 17.6532C56.2719 17.5057 55.5492 17.5067 54.8505 17.6562C54.2158 17.8047 53.6221 18.0909 53.1122 18.4942C52.6023 18.8975 52.1889 19.4078 51.9015 19.9886C51.8372 20.1073 51.8209 20.2458 51.856 20.3759C51.891 20.5061 51.9747 20.6181 52.0901 20.6891C52.2086 20.7563 52.3488 20.7747 52.4808 20.7405C52.6129 20.7063 52.7261 20.6221 52.7963 20.506Z" fill="#82368C"></path>
  <path d="M40.2943 23.1887C40.5148 22.7242 40.8389 22.3155 41.2421 21.9934C41.6452 21.6714 42.1169 21.4445 42.6214 21.33C43.1878 21.2196 43.7714 21.2295 44.3336 21.3592C44.8959 21.4889 45.4241 21.7353 45.8833 22.0822C46.0015 22.1504 46.1421 22.1695 46.2744 22.1352C46.4068 22.1009 46.52 22.016 46.5895 21.8991C46.6563 21.7808 46.6745 21.6414 46.6401 21.51C46.6057 21.3787 46.5214 21.2657 46.4049 21.1946C45.8269 20.7766 45.1664 20.4846 44.4666 20.3379C43.7668 20.1911 43.0436 20.1928 42.3446 20.3429C41.7087 20.4913 41.1142 20.7789 40.6047 21.1845C40.0952 21.5901 39.6835 22.1035 39.3996 22.6872C39.333 22.805 39.3149 22.9438 39.3494 23.0744C39.3838 23.2051 39.468 23.3174 39.5842 23.3877C39.703 23.4561 39.8442 23.4753 39.9772 23.441C40.1102 23.4067 40.2241 23.3218 40.2943 23.2046V23.1887Z" fill="#82368C"></path>
  <path d="M80.2636 33.6846C79.8416 32.6248 79.1565 31.6878 78.2721 30.9607C77.3876 30.2336 76.3324 29.7399 75.2043 29.5253C72.9855 29.0954 70.7547 29.5253 68.524 29.4576C68.074 29.4512 67.6255 29.4046 67.1839 29.3183C66.7919 29.2405 66.4135 29.1064 66.0605 28.9203C65.2303 28.4393 64.5393 27.7538 64.0544 26.9302C64.0052 26.8499 63.9396 26.7808 63.8618 26.7272C63.5945 25.2802 63.4203 23.8179 63.3402 22.3489C68.5761 23.5151 70.9233 21.1111 71.3646 18.0384C71.7377 15.3278 69.7036 12.5695 67.0716 11.8889C66.7112 11.7936 66.341 11.7402 65.9682 11.7297C64.6562 11.6939 63.26 12.0999 62.0724 11.5386C60.9851 11.0252 60.3993 9.82317 60.1425 8.65696C59.8858 7.49075 59.8657 6.26882 59.5046 5.13048C59.1598 4.16815 58.6152 3.28832 57.9061 2.54786C57.197 1.8074 56.3392 1.2228 55.3881 0.831833C53.4761 0.0621626 51.3921 -0.189222 49.3498 0.103451C46.108 0.501474 42.6374 2.25277 41.7788 5.33745C41.7788 5.35735 41.7788 5.38123 41.7588 5.40113C41.7307 5.51258 41.7026 5.62801 41.6785 5.74343L41.5983 5.63597C41.5541 5.68137 41.5008 5.71705 41.4418 5.74067C41.3828 5.7643 41.3195 5.77534 41.2559 5.77309C41.1923 5.77084 41.1299 5.75534 41.0728 5.7276C41.0156 5.69986 40.965 5.6605 40.9242 5.61209C40.3573 4.99178 39.6593 4.50329 38.8801 4.18152C38.1008 3.85975 37.2596 3.71262 36.4164 3.75064C35.5733 3.78866 34.7489 4.01089 34.0024 4.40147C33.2558 4.79205 32.6053 5.34133 32.0974 6.01011C30.1475 8.55347 31.1867 12.3785 28.7834 14.679C27.7482 15.6661 26.3761 16.0443 25.0882 16.6294C23.6864 17.291 22.5308 18.3747 21.7861 19.726C21.0817 21.0337 20.8411 22.5384 21.1031 23.9982C21.3651 25.4579 22.1144 26.7878 23.2305 27.774C25.2767 29.5293 28.0853 29.5532 30.3241 28.3471C30.3963 28.3113 30.4725 28.2715 30.5447 28.2277L30.4926 28.2596C29.5136 26.1063 29.4895 23.4833 31.1185 21.6325C33.6341 18.7588 38.7978 20.92 39.4718 15.9925C39.7607 13.8949 37.9994 10.9098 39.9412 9.26593C40.5488 8.78483 41.3163 8.54761 42.0918 8.60124C42.8024 8.65173 43.4961 8.83968 44.134 9.15449C44.1326 9.14525 44.1326 9.13587 44.134 9.12663C44.6736 8.38995 45.4412 7.84849 46.3199 7.58477C47.1985 7.32105 48.1399 7.34954 49.0007 7.66588C49.7789 7.95451 50.457 8.45876 50.9547 9.11867C51.4334 9.83584 51.7382 10.6532 51.8454 11.5068C51.9938 12.3227 52.0981 13.2103 52.5876 13.8949C53.0281 14.481 53.6405 14.9176 54.3409 15.1447C55.1636 15.3933 56.039 15.414 56.8726 15.2044C57.8131 14.9887 58.7856 14.9469 59.7413 15.081C61.3462 15.3597 63.1677 16.2751 63.5328 18.0105C63.6692 18.6553 62.6702 18.9299 62.5338 18.2811C62.5017 18.1259 62.3492 18.2811 62.3412 18.3409C61.6311 21.732 62.1567 24.7888 62.7424 28.1521C63.3242 31.3801 64.0424 34.7354 63.5449 38.0191C63.3389 39.4655 62.8379 40.855 62.0724 42.1028C61.3326 43.2521 60.3924 44.2616 59.296 45.084C58.311 45.8537 57.2242 46.4858 56.0662 46.9627C54.8354 47.4201 53.563 47.7587 52.2666 47.9736C50.7376 48.2473 49.1863 48.3806 47.6326 48.3717C46.3028 48.4036 44.9768 48.2167 43.7087 47.8184H43.6766V47.7906C43.0788 46.485 42.0196 45.4263 40.9643 44.475C39.9091 43.5237 38.8178 42.5725 37.8429 41.5177C36.8147 40.413 35.8757 39.2299 35.0344 37.9793C33.2168 35.2767 31.7243 32.1522 31.5157 28.8646C30.2193 29.7583 28.6809 30.2425 27.1023 30.2537C26.7988 30.2531 26.4957 30.2305 26.1955 30.186C24.5546 31.8179 22.7731 33.5891 22.055 35.8459C21.397 37.9037 21.9306 39.9813 23.05 41.7804C24.2536 43.6869 25.9628 45.1556 27.6479 46.6124C29.3331 48.0692 31.2148 49.6095 32.2098 51.6315C32.7217 52.6321 32.8894 53.7714 32.6872 54.8754C32.504 55.7192 32.1972 56.5318 31.7765 57.2874C32.6417 57.8872 33.6286 58.2924 34.6681 58.4746C35.7076 58.6568 36.7747 58.6116 37.7947 58.3421C40.6313 57.5779 42.8862 55.2216 43.813 52.5031C44.1702 51.5021 44.2789 50.4303 44.13 49.3787C45.0953 49.5983 46.0807 49.7196 47.0709 49.7409H47.4962C47.5506 51.3137 47.9958 52.8488 48.7924 54.2098C49.5889 55.5708 50.7121 56.7155 52.062 57.5421C54.098 58.7041 56.4976 59.071 58.7918 58.5712C61.086 58.0714 63.1098 56.7408 64.4677 54.8395C65.755 55.2824 67.127 55.4287 68.4798 55.2673C69.8326 55.1059 71.1306 54.6411 72.2754 53.9082C73.5074 53.0891 74.5049 51.9677 75.1707 50.653C75.8365 49.3382 76.148 47.875 76.0749 46.4054C76.0249 45.0994 75.6808 43.821 75.0678 42.664C76.883 42.3597 78.5044 41.3588 79.5815 39.8779C80.2012 38.9814 80.5877 37.9468 80.7067 36.8662C80.8257 35.7857 80.6735 34.6927 80.2636 33.6846Z" fill="#82368C"></path>
  <path d="M25.2326 45.892C23.5917 44.3954 22.0991 42.7078 21.2606 40.6182C20.8568 39.6332 20.666 38.5751 20.7006 37.5124C20.7351 36.4496 20.9942 35.4059 21.4612 34.4488C22.2636 32.7095 23.6197 31.2647 24.9718 29.8994C23.8469 29.5374 22.8315 28.901 22.0189 28.0486C20.8716 26.8235 20.1606 25.2592 19.9947 23.5951C19.8288 21.931 20.217 20.2588 21.1001 18.8344C21.9827 17.4172 23.2763 16.2976 24.8114 15.6224C26.1434 15.0412 27.7162 14.6154 28.5467 13.3258C29.4895 11.861 29.5537 10.0461 29.9309 8.39427C30.2076 7.0564 30.8455 5.81824 31.7765 4.81207C31.7166 4.72406 31.635 4.65266 31.5395 4.60461C31.4441 4.55656 31.3378 4.53343 31.2308 4.53743C28.741 4.52089 26.2799 5.06526 24.033 6.12952C21.9594 7.16198 20.1581 8.66134 18.773 10.5078C15.3547 14.9895 14.6244 20.9877 15.7478 26.3849C15.9003 27.1332 16.0167 27.8894 16.1491 28.6417C16.2258 29.0503 16.2094 29.4708 16.1011 29.8723C15.9928 30.2738 15.7954 30.6462 15.5232 30.9622C13.6254 33.2388 10.4076 32.9523 7.74757 33.3941C5.39789 33.7317 3.2757 34.9708 1.83764 36.8449C0.574507 38.5217 -0.073767 40.576 6.02151e-05 42.668C0.0400382 43.7958 0.305742 44.9045 0.781706 45.9295C1.25767 46.9544 1.93439 47.8753 2.77247 48.6383C4.71437 50.3578 7.30623 50.9907 9.84995 51.0902C10.203 51.0902 10.5601 51.0902 10.9132 51.0902C10.7045 54.5768 12.4859 58.0436 15.2824 60.1412C18.5283 62.5731 23.1022 62.5015 26.5526 60.5392C28.2513 59.5277 29.7277 58.1877 30.8938 56.5988C31.3743 55.7669 31.6493 54.834 31.6962 53.8763C31.6962 52.6584 31.0342 51.5519 30.2799 50.6324C28.8115 48.8573 26.9418 47.4522 25.2326 45.892Z" fill="#82368C"></path>
</svg></svg></g></svg>