<?xml version="1.0" standalone="no"?>
<!DOCTYPE svg PUBLIC "-//W3C//DTD SVG 20010904//EN"
 "http://www.w3.org/TR/2001/REC-SVG-20010904/DTD/svg10.dtd">
<svg version="1.0" xmlns="http://www.w3.org/2000/svg"
 width="1296.000000pt" height="1296.000000pt" viewBox="0 0 1296.000000 1296.000000"
 preserveAspectRatio="xMidYMid meet">
<metadata>
Created by potrace 1.14, written by Peter Selinger 2001-2017
</metadata>
<g transform="translate(0.000000,1296.000000) scale(0.100000,-0.100000)"
fill="#000000" stroke="none">
<path d="M8039 11455 c-2 -1 -31 -6 -64 -9 -151 -16 -307 -49 -435 -93 -44
-15 -55 -18 -75 -23 -5 -1 -19 -7 -30 -13 -11 -6 -26 -12 -34 -13 -8 -2 -18
-9 -22 -16 -5 -7 -9 -9 -9 -4 0 4 -11 1 -25 -8 -14 -9 -25 -14 -25 -11 0 4
-13 -3 -29 -14 -16 -12 -32 -21 -37 -21 -11 0 -99 -57 -169 -109 -58 -43 -174
-154 -225 -216 -52 -64 -130 -218 -150 -301 -11 -43 -18 -53 -45 -63 -50 -18
-62 -14 -120 41 -193 181 -406 270 -650 272 -86 0 -179 -11 -240 -28 -5 -2
-23 -7 -40 -11 -55 -15 -176 -74 -245 -120 -65 -43 -225 -193 -216 -202 2 -2
-7 -16 -20 -30 -13 -14 -24 -32 -24 -39 0 -8 -4 -14 -8 -14 -7 0 -34 -44 -36
-60 -1 -3 -9 -22 -19 -43 -10 -21 -20 -48 -23 -60 -2 -12 -8 -23 -14 -25 -6
-2 -8 -8 -5 -13 3 -5 1 -17 -4 -27 -5 -10 -11 -29 -13 -43 -2 -13 -7 -30 -11
-36 -5 -7 -6 -13 -3 -13 2 0 0 -15 -5 -32 -5 -18 -12 -44 -14 -58 -2 -14 -7
-36 -10 -50 -3 -14 -8 -41 -11 -60 -2 -19 -9 -57 -15 -85 -5 -27 -12 -64 -15
-81 -2 -17 -14 -66 -25 -110 -11 -43 -22 -88 -24 -99 -2 -11 -10 -37 -19 -57
-9 -21 -14 -38 -12 -38 2 0 -12 -33 -32 -72 -19 -40 -35 -76 -34 -80 1 -5 -3
-8 -8 -8 -6 0 -10 -7 -10 -15 0 -8 -4 -15 -9 -15 -5 0 -12 -8 -16 -19 -9 -29
-134 -152 -196 -193 -59 -39 -237 -130 -279 -143 -14 -4 -48 -18 -77 -31 -28
-13 -54 -24 -57 -24 -8 0 -160 -73 -166 -80 -3 -3 -17 -11 -31 -18 -14 -8 -39
-25 -54 -38 -15 -13 -32 -24 -37 -24 -11 0 -198 -187 -223 -224 -11 -15 -24
-33 -30 -40 -55 -64 -165 -316 -169 -386 -1 -14 -4 -29 -7 -35 -14 -25 -17
-269 -5 -350 8 -56 28 -128 37 -141 5 -6 6 -13 3 -16 -6 -6 16 -58 68 -166 53
-109 172 -257 258 -322 18 -14 39 -31 46 -37 7 -7 17 -13 23 -13 6 0 11 -3 11
-8 0 -4 25 -18 55 -32 30 -14 55 -28 55 -32 0 -5 8 -8 18 -8 10 0 22 -4 27 -8
12 -10 136 -48 185 -57 126 -22 333 -14 430 17 19 6 41 12 50 13 8 1 22 4 30
8 8 4 38 15 65 25 78 27 156 73 146 86 -10 13 -56 138 -67 181 -11 47 -16 71
-29 145 -5 29 -6 236 -1 265 1 11 6 41 11 68 4 26 11 50 16 53 5 3 7 9 5 13
-3 4 4 32 15 60 60 160 161 293 283 373 22 15 46 32 53 38 7 5 14 10 17 10 3
0 29 11 58 23 83 37 200 75 278 91 14 3 84 19 155 36 72 17 135 32 140 33 6 2
16 6 23 10 6 5 12 6 12 2 0 -3 14 2 30 10 17 9 35 13 40 10 6 -3 10 -2 10 3 0
6 12 13 28 17 15 3 35 14 45 22 9 9 17 12 17 7 0 -5 4 -4 8 3 4 6 13 13 21 15
19 4 57 35 117 97 69 70 130 196 150 309 2 12 6 34 9 50 7 37 7 159 1 205 -13
82 -16 103 -21 132 -8 44 -24 135 -30 175 -3 19 -8 46 -10 60 -3 14 -7 68 -9
120 -8 223 66 369 229 449 115 57 219 68 374 41 39 -8 74 -17 77 -22 3 -4 14
-8 25 -8 10 0 39 -9 64 -21 l44 -21 67 71 c36 39 73 71 81 71 7 0 16 7 19 15
4 8 12 15 20 15 8 0 14 5 14 12 0 6 3 8 6 5 4 -3 18 2 32 13 13 11 28 17 33
14 5 -3 9 0 9 7 0 7 3 9 7 6 3 -4 12 -2 20 4 7 6 13 8 13 4 0 -4 6 -3 13 3 7
6 26 13 42 16 17 2 30 5 30 6 0 1 11 4 25 7 47 10 265 4 265 -7 0 -1 9 -3 20
-5 119 -16 287 -127 381 -250 40 -52 105 -188 109 -227 1 -9 7 -30 13 -45 6
-15 13 -41 16 -58 2 -16 5 -32 6 -35 1 -3 2 -8 1 -12 0 -6 23 -130 34 -175 3
-13 7 -33 10 -45 8 -39 49 -138 57 -138 5 0 8 -6 8 -13 0 -11 93 -112 132
-143 28 -22 164 -84 198 -89 19 -4 52 -10 72 -14 49 -11 222 -7 273 7 40 11
70 16 155 29 55 8 258 7 320 -2 89 -12 169 -38 279 -87 182 -82 321 -245 337
-394 3 -33 0 -44 -19 -62 -45 -42 -103 -38 -131 8 -10 18 -22 27 -31 24 -8 -4
-13 -10 -10 -14 3 -5 1 -19 -4 -32 -5 -13 -11 -48 -15 -78 -3 -30 -8 -68 -11
-84 -17 -88 -28 -493 -14 -553 4 -20 3 -33 -3 -33 -5 0 -6 -5 -2 -11 7 -12 11
-43 16 -131 1 -32 5 -58 8 -58 3 0 6 -19 7 -43 1 -23 4 -60 8 -82 3 -22 8 -53
10 -70 5 -37 12 -80 20 -125 3 -19 8 -48 11 -65 2 -16 7 -41 9 -55 3 -14 7
-40 10 -58 2 -18 6 -45 9 -60 12 -57 19 -98 22 -122 1 -14 3 -25 4 -25 1 0 3
-11 6 -25 2 -14 9 -50 15 -80 14 -80 37 -209 44 -255 3 -22 7 -47 10 -55 2 -8
7 -37 10 -65 3 -27 7 -63 10 -80 12 -79 17 -114 20 -160 2 -27 8 -86 12 -130
14 -149 8 -431 -11 -590 -17 -129 -63 -312 -102 -402 -8 -17 -14 -35 -14 -40
0 -16 -134 -271 -149 -283 -3 -3 -22 -27 -41 -55 -57 -83 -119 -153 -205 -236
-104 -100 -150 -138 -162 -139 -7 0 -13 -4 -13 -8 0 -11 -150 -115 -253 -175
-136 -81 -376 -185 -391 -170 -3 4 -6 2 -6 -4 0 -9 -38 -22 -85 -28 -5 -1 -17
-5 -25 -8 -20 -8 -121 -36 -151 -42 -31 -6 -92 -19 -101 -21 -5 -1 -9 -3 -10
-4 -2 -1 -14 -4 -28 -5 -14 -1 -41 -5 -60 -9 -75 -15 -190 -31 -202 -28 -5 1
-8 -1 -8 -5 0 -5 -17 -8 -38 -9 -20 0 -68 -4 -107 -8 -133 -14 -531 -22 -625
-12 -110 12 -169 21 -200 31 -10 3 -34 7 -53 9 -19 2 -41 7 -47 11 -7 4 -20 9
-29 10 -71 9 -81 17 -126 94 -24 42 -48 81 -54 88 -6 7 -11 17 -11 23 0 5 -4
10 -8 10 -4 0 -15 13 -24 28 -10 16 -37 50 -62 75 -24 26 -43 47 -42 47 4 0
-128 129 -170 167 -31 28 -176 159 -267 243 -156 143 -338 335 -467 495 -36
44 -68 82 -72 83 -5 2 -8 8 -8 14 0 9 -67 97 -83 109 -5 3 -7 9 -5 12 1 3 -7
17 -19 30 -12 14 -27 36 -34 49 -6 12 -15 25 -18 28 -9 7 -61 89 -61 95 0 3
-8 15 -18 26 -11 10 -25 32 -33 47 -8 15 -31 55 -51 89 -21 35 -38 67 -38 73
0 5 -3 10 -7 10 -5 0 -19 25 -32 55 -14 30 -28 55 -33 55 -4 0 -7 3 -6 8 1 4
-12 36 -29 72 -53 114 -70 153 -98 225 -31 80 -55 150 -60 174 -2 9 -10 35
-19 59 -8 23 -15 44 -16 47 0 3 0 6 -1 8 0 1 -2 11 -4 22 -2 11 -9 40 -15 65
-6 25 -13 59 -16 75 -7 46 -12 77 -19 112 -3 18 -7 57 -8 88 -2 58 -14 69 -46
41 -15 -13 -165 -95 -176 -96 -2 -1 -20 -7 -39 -15 -20 -8 -41 -15 -49 -15 -7
0 -17 -4 -23 -9 -5 -6 -20 -11 -34 -13 -14 -2 -31 -7 -37 -11 -7 -5 -13 -6
-13 -3 0 2 -15 0 -32 -5 -44 -12 -115 -23 -155 -22 -18 0 -33 -3 -33 -6 0 -7
-143 -4 -189 4 -32 6 -38 2 -150 -113 -145 -149 -184 -192 -244 -267 -27 -33
-56 -69 -65 -80 -9 -11 -30 -40 -46 -65 -16 -25 -31 -47 -35 -50 -5 -4 -22
-33 -55 -95 -6 -11 -15 -23 -19 -26 -5 -3 -9 -10 -9 -15 -1 -5 -13 -36 -28
-69 -42 -95 -68 -182 -86 -293 -8 -47 -8 -227 0 -266 27 -139 44 -201 77 -281
7 -16 13 -32 14 -35 11 -43 149 -281 166 -288 5 -2 9 -8 9 -13 0 -10 1 -12 87
-114 105 -127 173 -198 323 -335 126 -116 132 -121 270 -240 14 -12 40 -35 57
-51 18 -16 33 -28 33 -25 0 2 15 -10 33 -28 18 -17 75 -69 126 -116 95 -86
196 -188 249 -250 17 -19 40 -46 52 -60 12 -14 29 -37 38 -52 9 -16 20 -28 24
-28 4 0 8 -4 8 -9 0 -6 13 -29 29 -53 56 -84 111 -203 137 -298 14 -49 18
-100 18 -205 -1 -128 -3 -149 -33 -244 -17 -56 -51 -145 -75 -195 l-43 -93 44
-28 c97 -61 272 -133 368 -151 6 -1 12 -3 15 -4 3 -1 19 -3 35 -5 17 -2 46 -6
65 -9 34 -5 200 -10 210 -6 3 1 23 3 45 5 69 5 139 17 158 26 9 6 17 7 17 5 0
-19 329 123 338 146 2 4 8 8 13 8 10 0 60 34 93 62 11 10 23 18 27 18 7 0 21
12 129 114 25 23 65 66 90 95 25 30 51 59 58 67 6 7 12 17 12 21 0 5 8 18 18
29 10 10 35 48 56 84 20 36 42 72 47 80 18 31 98 219 104 245 1 5 7 28 13 50
31 110 47 309 31 375 -9 38 -1 52 22 40 10 -6 19 -9 19 -6 0 2 28 -2 62 -10
34 -8 68 -12 75 -10 7 3 13 2 13 -2 0 -4 19 -8 43 -9 23 -1 62 -4 87 -7 25 -3
84 -7 131 -8 l87 -2 -1 -31 c-2 -127 63 -396 129 -535 15 -30 33 -68 40 -85
16 -34 21 -42 88 -143 51 -79 58 -88 121 -160 64 -73 203 -202 228 -211 6 -2
20 -13 31 -23 28 -26 159 -101 230 -133 79 -35 221 -81 276 -90 25 -4 49 -10
55 -13 10 -6 22 -8 92 -14 24 -1 43 -7 43 -12 0 -6 5 -5 11 1 6 6 22 8 38 4
66 -18 333 3 461 36 14 3 30 7 37 9 20 4 117 35 138 44 11 5 49 21 85 36 36
16 87 41 113 56 26 15 50 28 53 28 9 0 141 95 207 150 38 31 123 118 163 166
23 27 53 62 67 79 18 22 28 27 38 19 12 -9 61 -23 139 -40 218 -46 532 -40
673 15 15 6 27 8 27 6 0 -8 173 56 225 83 28 14 57 27 65 28 8 2 16 8 18 13 2
6 9 11 14 11 15 0 149 91 195 132 81 73 132 127 191 203 34 44 67 86 73 93 5
6 21 33 35 60 13 26 29 54 34 62 26 40 87 199 105 270 11 44 34 161 40 200 11
83 6 293 -10 380 -4 19 -8 49 -10 66 -3 17 -9 42 -14 55 -5 13 -9 27 -10 32
-5 45 -49 164 -92 250 -13 28 -15 39 -6 42 24 7 72 19 82 20 54 6 301 114 338
149 7 6 31 24 54 39 52 36 169 149 208 202 16 22 35 46 42 53 7 7 13 20 13 28
0 8 4 14 9 14 17 0 112 232 126 310 3 14 8 36 11 50 3 14 8 86 9 160 4 139
-10 239 -49 355 -31 94 -125 273 -148 283 -5 2 -8 10 -8 17 0 16 -160 181
-215 221 -22 16 -46 35 -53 41 -7 7 -30 20 -50 30 -20 9 -39 20 -42 23 -9 11
-95 48 -165 71 -39 12 -77 24 -85 27 -22 7 -42 12 -67 14 -13 1 -23 5 -23 8 0
3 -12 5 -27 6 -16 0 -55 4 -88 8 -78 10 -352 11 -525 1 -335 -17 -624 -6 -666
26 -6 5 -13 6 -16 3 -4 -3 -20 2 -37 10 -17 9 -34 16 -38 16 -5 0 -37 17 -73
38 -73 42 -211 173 -261 247 -18 28 -41 59 -50 70 -10 11 -20 36 -23 55 -3 19
-8 46 -10 60 -6 35 -25 158 -30 200 -21 163 -25 199 -32 314 l-5 94 38 -8 c77
-17 140 -26 227 -34 58 -5 175 -9 186 -6 3 0 30 3 60 5 88 6 153 19 235 47 54
18 104 41 175 79 66 37 221 192 227 228 1 8 6 17 11 20 11 7 73 131 66 131 -3
0 1 10 8 23 6 12 13 28 15 35 9 39 12 47 13 47 3 0 19 83 25 130 6 48 6 157 0
200 -11 77 -32 160 -52 205 -33 75 -58 125 -65 128 -5 2 -8 8 -8 12 0 53 -287
340 -341 340 -5 0 -9 5 -9 10 0 6 -9 10 -20 10 -11 0 -20 5 -20 10 0 6 -4 10
-9 10 -5 0 -26 8 -47 17 -47 20 -42 18 -129 41 -38 11 -80 18 -92 17 -13 -1
-23 1 -23 4 0 7 -118 5 -245 -4 -122 -9 -265 -12 -265 -5 0 3 -15 6 -33 8 -44
4 -59 7 -82 16 -104 38 -213 131 -260 222 -16 33 -32 61 -35 64 -12 11 -39 93
-34 101 3 5 1 9 -4 9 -5 0 -15 28 -22 63 -6 34 -16 70 -21 79 -6 11 -5 19 1
23 7 5 8 11 1 19 -5 6 -12 31 -15 56 -2 25 -5 45 -6 45 -1 0 -3 16 -5 35 -2
19 -6 51 -9 70 -3 19 -8 58 -12 85 -3 28 -10 52 -15 53 -5 2 -7 8 -4 13 3 5 0
28 -6 51 -7 24 -13 45 -14 48 -11 54 -140 300 -157 300 -4 0 -8 5 -8 10 0 20
-132 159 -209 220 -24 19 -49 40 -55 45 -28 24 -196 115 -212 115 -8 0 -14 4
-14 10 0 5 -3 9 -7 8 -5 0 -15 1 -23 4 -8 3 -37 13 -65 23 -27 9 -57 19 -65
22 -8 3 -24 8 -34 10 -10 2 -53 12 -95 23 -42 10 -94 21 -116 24 -22 3 -51 8
-65 11 -26 7 -385 16 -391 10z"/>
<path d="M4826 10723 c-1 -2 -34 -5 -72 -8 -92 -6 -173 -18 -284 -40 -14 -3
-36 -7 -50 -10 -14 -2 -52 -12 -85 -21 -33 -9 -68 -17 -77 -18 -10 0 -18 -4
-18 -9 0 -4 -4 -6 -9 -2 -5 3 -12 1 -16 -5 -3 -5 -14 -10 -23 -10 -14 0 -107
-33 -227 -80 -16 -6 -32 -12 -35 -13 -6 -1 -183 -93 -212 -110 -172 -100 -390
-274 -523 -417 -33 -35 -72 -77 -87 -92 -14 -15 -25 -28 -23 -28 2 0 -6 -11
-19 -25 -13 -14 -36 -44 -52 -67 -16 -24 -35 -47 -42 -51 -7 -5 -10 -12 -7
-18 4 -5 1 -9 -5 -9 -6 0 -14 -8 -17 -17 -6 -16 -41 -71 -53 -83 -25 -25 -162
-290 -206 -399 -25 -64 -50 -125 -55 -136 -4 -11 -13 -40 -20 -65 -6 -25 -14
-49 -17 -55 -4 -5 -8 -14 -9 -20 -1 -5 -16 -62 -32 -125 -16 -63 -32 -132 -35
-152 -3 -21 -10 -57 -15 -80 -13 -55 -23 -133 -38 -283 -15 -155 -7 -625 12
-727 3 -12 7 -44 10 -70 3 -26 13 -84 21 -130 8 -46 22 -121 30 -168 8 -47 17
-96 20 -110 3 -14 7 -37 10 -53 2 -15 6 -39 10 -55 3 -15 7 -38 9 -52 2 -14 4
-25 5 -25 1 0 3 -22 5 -50 1 -27 4 -52 5 -55 3 -7 3 -7 -4 -64 -4 -27 -11 -56
-16 -65 -4 -9 -9 -20 -9 -26 -3 -22 -26 -75 -32 -75 -4 0 -11 -10 -14 -21 -8
-25 -148 -169 -164 -169 -6 0 -11 -5 -11 -11 0 -5 -5 -7 -10 -4 -6 3 -10 1
-10 -5 0 -6 -15 -18 -32 -26 -18 -8 -52 -25 -74 -37 -23 -12 -45 -23 -50 -24
-5 -1 -36 -12 -69 -24 -69 -24 -60 -22 -185 -48 -52 -11 -122 -23 -155 -27
-33 -3 -71 -8 -85 -9 -14 -1 -43 -5 -65 -8 -22 -3 -74 -9 -115 -12 -41 -4 -86
-8 -100 -10 -14 -2 -45 -7 -70 -10 -46 -6 -207 -34 -225 -39 -62 -17 -136 -40
-160 -49 -16 -6 -33 -11 -37 -10 -3 1 -12 -4 -18 -12 -7 -8 -20 -15 -29 -16
-9 0 -47 -18 -86 -40 -38 -22 -78 -42 -88 -45 -9 -4 -17 -10 -17 -15 0 -5 -5
-9 -11 -9 -19 0 -154 -107 -233 -186 -60 -59 -126 -134 -118 -134 4 0 2 -4 -4
-8 -34 -21 -194 -303 -194 -341 0 -6 -5 -11 -10 -11 -6 0 -9 -3 -8 -7 1 -5 -8
-40 -20 -78 -52 -171 -66 -263 -66 -440 0 -120 5 -193 19 -270 11 -58 48 -189
61 -214 7 -13 11 -28 8 -33 -3 -4 0 -8 5 -8 6 0 11 -6 11 -14 0 -15 86 -183
112 -221 103 -145 244 -290 331 -343 15 -9 27 -20 27 -24 0 -4 7 -8 15 -8 8 0
15 -5 15 -11 0 -5 4 -7 10 -4 5 3 10 2 10 -2 0 -9 0 -9 135 -75 53 -27 102
-48 110 -48 8 0 16 -4 19 -9 3 -5 16 -11 28 -14 13 -3 61 -16 108 -30 97 -29
212 -54 291 -63 30 -3 65 -8 79 -10 14 -3 97 -8 185 -11 88 -3 161 -6 162 -7
2 -2 5 -61 7 -132 3 -71 6 -138 9 -149 2 -11 8 -42 11 -70 8 -56 38 -175 56
-220 6 -16 11 -30 10 -30 -2 0 5 -17 14 -39 9 -21 16 -44 16 -50 0 -7 5 -17
11 -23 6 -6 11 -17 13 -24 3 -21 69 -153 78 -157 5 -2 8 -9 8 -16 0 -6 7 -21
15 -31 8 -11 33 -47 54 -80 22 -33 49 -70 60 -82 12 -12 21 -25 21 -29 0 -15
217 -235 269 -274 19 -14 39 -30 45 -35 64 -61 360 -215 412 -215 8 0 14 -5
14 -12 0 -6 3 -9 6 -6 3 4 20 2 37 -4 46 -14 102 -27 145 -34 20 -3 40 -8 43
-10 18 -11 133 -19 279 -18 151 0 195 3 300 19 57 10 199 46 259 66 31 11 61
21 66 23 6 2 26 9 45 17 19 7 38 12 42 11 5 -1 8 2 8 8 0 5 5 10 11 10 18 0
159 72 159 82 0 4 6 8 13 8 15 0 170 105 242 164 144 118 300 274 377 378 15
20 34 42 41 50 22 22 84 159 106 233 28 98 34 138 34 235 -1 118 -9 151 -65
270 -27 59 -107 189 -133 216 -5 6 -28 33 -50 60 -68 83 -322 330 -445 434
-51 42 -124 106 -145 125 -11 11 -37 33 -56 49 -153 128 -387 361 -474 471
-16 21 -36 44 -42 51 -7 7 -13 17 -13 23 0 5 -6 14 -13 18 -46 29 -244 395
-259 478 -1 11 -6 22 -10 25 -3 3 -8 19 -11 35 -2 17 -6 37 -10 45 -18 49 -30
163 -30 285 1 117 6 185 14 185 3 0 5 12 4 28 -1 15 1 32 4 37 3 6 6 15 8 20
1 6 5 24 8 40 10 45 11 48 23 78 7 16 12 32 12 37 0 5 9 26 19 47 11 21 31 63
46 93 30 64 113 200 138 228 9 10 17 23 17 29 0 6 3 13 8 15 4 2 23 23 42 48
62 80 138 166 246 277 39 40 68 73 65 73 -3 0 3 6 14 14 17 12 16 13 -11 20
-69 18 -273 128 -325 176 -9 8 -44 40 -78 70 -90 80 -175 194 -238 320 -16 30
-32 58 -36 61 -5 3 -8 9 -8 13 0 6 -5 26 -16 54 -7 20 -6 15 -23 72 -7 25 -15
50 -16 55 -34 110 -47 308 -28 450 15 116 22 153 35 176 5 11 7 19 4 19 -3 0
1 16 9 35 9 20 16 37 16 40 0 3 7 20 16 40 8 19 14 37 14 40 0 7 82 158 89
165 3 3 22 28 41 55 19 28 46 63 60 80 39 46 193 195 201 195 5 0 19 10 33 23
13 12 37 29 53 37 15 8 34 21 41 28 7 6 20 12 28 12 8 0 14 3 14 8 0 9 71 42
300 138 141 59 197 88 265 139 85 63 146 137 197 240 26 51 74 190 82 235 3
14 5 25 6 25 1 0 3 11 6 25 2 14 9 48 15 75 6 28 13 64 15 80 7 46 14 88 19
110 2 11 7 36 10 55 25 138 59 253 107 360 35 76 126 219 174 272 58 65 24 86
-131 85 -58 -1 -107 -2 -109 -4z"/>
<path d="M8888 8635 c-1 -1 -21 -5 -43 -8 -70 -9 -168 -45 -240 -88 -39 -24
-75 -47 -81 -53 -6 -6 -26 -25 -45 -41 -19 -17 -48 -48 -64 -70 -17 -22 -33
-42 -37 -45 -3 -3 -18 -28 -32 -55 -44 -90 -13 -158 69 -149 32 3 50 21 89 88
71 122 233 232 371 253 89 13 287 -5 301 -28 3 -5 9 -7 14 -4 10 6 144 -61
160 -80 31 -37 118 -25 138 20 12 27 7 72 -11 89 -57 54 -178 115 -287 146
-65 18 -289 37 -302 25z"/>
<path d="M6877 8204 c-1 -1 -18 -4 -37 -7 -53 -8 -167 -46 -203 -68 -18 -10
-39 -22 -47 -25 -48 -22 -210 -176 -210 -201 0 -7 -4 -13 -9 -13 -5 0 -13 -10
-17 -22 -3 -13 -14 -34 -23 -48 -17 -26 -19 -48 -7 -87 8 -26 77 -57 88 -40 4
6 10 8 14 4 8 -8 52 40 60 68 4 10 12 24 18 31 6 7 27 32 46 56 52 67 175 151
240 163 11 2 24 6 29 9 5 3 28 8 52 11 24 3 53 7 64 9 11 2 26 -1 33 -7 8 -6
12 -6 12 1 0 6 8 9 18 8 9 -2 40 -7 67 -10 88 -12 279 -92 300 -126 3 -6 22
-10 41 -10 25 0 42 8 59 26 55 59 16 122 -115 185 -102 50 -123 58 -199 75
-54 13 -264 27 -274 18z"/>
<path d="M9245 7933 c-78 -15 -208 -72 -259 -113 -34 -27 -116 -113 -116 -121
0 -4 -6 -14 -13 -21 -37 -39 -112 -178 -123 -231 -3 -12 -8 -33 -12 -47 -9
-36 -8 -228 2 -275 30 -147 126 -284 234 -336 37 -19 60 -24 117 -31 6 0 29 2
52 5 149 22 276 169 317 367 13 64 14 216 1 275 -8 41 -43 133 -63 169 -34 60
-112 142 -149 157 -22 8 -32 28 -15 30 4 0 18 3 32 5 129 24 242 -18 327 -123
38 -48 104 -156 122 -200 7 -18 17 -31 21 -28 5 3 10 0 12 -7 2 -6 20 -11 40
-11 40 0 72 25 81 64 12 49 -84 216 -179 314 -81 83 -121 109 -209 141 -46 16
-172 26 -220 17z"/>
<path d="M7309 7486 c-2 -2 -29 -7 -59 -11 -111 -13 -282 -80 -298 -117 -2 -5
-9 -8 -16 -8 -24 0 -144 -140 -190 -221 -69 -121 -88 -186 -92 -300 -2 -82 2
-122 20 -194 2 -5 8 -23 14 -38 7 -16 12 -31 12 -35 0 -4 11 -24 25 -45 14
-20 24 -37 21 -37 -11 0 83 -95 119 -120 122 -84 307 -82 415 5 127 101 201
258 204 430 2 69 -19 192 -35 212 -6 7 -8 13 -5 13 14 0 -56 117 -97 162 -23
25 -69 63 -101 82 -33 20 -58 36 -55 37 2 0 13 3 24 5 30 7 127 8 158 1 127
-27 237 -132 337 -320 13 -25 26 -44 28 -42 3 2 13 0 23 -5 21 -12 66 3 89 28
24 26 21 81 -6 124 -13 21 -24 40 -24 43 0 14 -88 125 -139 175 -101 100 -199
151 -313 164 -21 3 -41 7 -46 10 -5 3 -11 4 -13 2z"/>
<path d="M8610 6961 c0 -5 -8 -7 -18 -4 -25 6 -41 -32 -31 -77 4 -19 5 -38 3
-42 -3 -5 0 -8 7 -8 7 0 10 -3 6 -6 -3 -4 0 -19 9 -35 8 -16 15 -32 16 -36 2
-20 24 -59 35 -66 7 -4 13 -14 13 -20 0 -13 56 -74 101 -112 31 -26 128 -85
139 -85 19 0 56 -58 54 -86 -1 -16 -3 -29 -4 -29 -1 0 -3 -10 -6 -23 -6 -35
-45 -124 -66 -151 -32 -42 -21 -88 24 -96 28 -5 82 30 73 46 -4 5 -3 9 2 9 11
0 50 86 70 153 21 70 19 148 -3 184 -23 35 -57 73 -66 73 -14 0 -149 100 -185
137 -52 51 -101 139 -109 192 -4 25 -11 52 -17 59 -15 19 -47 35 -47 23z"/>
<path d="M9247 5785 c-28 -14 -67 -51 -67 -63 0 -4 -38 -44 -84 -88 -125 -120
-265 -208 -421 -266 -44 -16 -87 -31 -95 -33 -8 -2 -34 -8 -56 -14 -116 -31
-389 -34 -511 -6 -13 3 -31 7 -41 9 -42 9 -121 35 -177 58 -33 13 -66 23 -72
22 -7 -1 -20 -2 -28 -3 -25 -2 -65 -52 -65 -81 0 -36 44 -75 99 -86 8 -1 17
-8 21 -14 4 -7 11 -11 16 -10 8 1 21 -2 57 -15 18 -6 22 -7 30 -6 4 0 7 -3 7
-7 0 -4 8 -8 18 -8 17 -1 28 -3 117 -24 127 -29 390 -31 505 -5 14 3 36 8 50
11 49 10 146 38 180 53 19 8 37 15 40 16 26 8 133 57 140 64 3 4 21 14 40 24
31 16 109 70 180 126 45 35 124 115 170 171 25 30 48 58 53 61 9 7 11 35 3 64
-2 11 -5 23 -5 27 -1 9 -36 28 -60 33 -10 2 -30 -2 -44 -10z"/>
</g>
</svg>
